<svg width="174" height="65" viewBox="0 0 174 65" fill="none" xmlns="http://www.w3.org/2000/svg">
<path d="M18.8971 28.2524C21.0513 26.2905 23.9764 25.1454 26.941 25.0029C27.9557 25.0029 28.9733 25.0087 29.988 25C29.9362 26.0377 29.988 27.0782 29.9575 28.1158C29.8143 30.4352 28.9154 32.7022 27.4011 34.5217C25.4328 36.969 22.4224 38.6111 19.2262 39.0355C17.8307 39.2505 16.4138 39.1139 15.0092 39.1517C15.0336 38.0094 14.9574 36.8644 15.0519 35.725C15.3261 32.8999 16.7247 30.1939 18.8971 28.2524Z" fill="#81818B"/>
<path d="M30.9276 25C32.0154 25.0117 33.1031 24.9942 34.1939 25.0058C36.9087 25.1889 39.587 26.1829 41.6313 27.9066C43.886 29.7521 45.4311 32.3913 45.8269 35.2106C46.0007 36.5184 45.891 37.8409 45.9582 39.1546C45.0074 39.1517 44.0598 39.1489 43.109 39.1546C40.7722 39.0936 38.4748 38.3728 36.5187 37.1579C35.6168 36.5417 34.6905 35.9169 34.0141 35.0623C32.5303 33.4812 31.5217 31.496 31.1409 29.4034C30.8544 27.9501 30.9702 26.4678 30.9276 25Z" fill="#81818B"/>
<path d="M15.0113 39.9858C15.9772 40.0381 16.9461 39.9422 17.9089 40.044C22.0314 40.1282 26.0321 42.3372 28.1679 45.7C29.3928 47.5834 30.0509 49.8157 29.9657 52.0331C29.9626 52.7602 29.9748 53.4837 29.9534 54.2077C28.4239 54.1636 26.8791 54.2827 25.3647 54.0008C22.001 53.4606 18.9083 51.5507 17.0466 48.8245C15.6359 46.8422 14.932 44.4211 15.0052 42.0291C15.0052 41.346 15.0052 40.6659 15.0113 39.9858Z" fill="#81818B"/>
<path d="M40.8099 40.2938C42.4675 39.9421 44.1764 40.0002 45.8616 40.0002L45.9351 40.07C45.8984 41.5901 46.0233 43.1276 45.7036 44.6302C45.03 48.0018 42.6901 51.0127 39.5424 52.6665C37.5832 53.7073 35.3346 54.2187 33.0951 54.1956C32.3791 54.1987 31.66 54.184 30.944 54.204C30.944 52.9456 30.8891 51.6816 31.0384 50.4285C31.3858 47.3972 33.1043 44.575 35.5753 42.6684C37.1049 41.5174 38.9026 40.6832 40.8099 40.2938Z" fill="#81818B"/>
<path d="M58.4432 48.5779C58.4432 49.0896 58.2573 49.5224 57.8867 49.8768C57.5355 50.2115 57.0918 50.3788 56.5558 50.3788C56.0397 50.3788 55.6066 50.2115 55.2559 49.8768C54.9052 49.5224 54.7299 49.0896 54.7299 48.5779V30.3343C54.7299 29.8226 54.9052 29.3995 55.2559 29.065C55.6271 28.7107 56.0812 28.5336 56.6178 28.5336C57.1538 28.5336 57.5869 28.7107 57.9171 29.065C58.2678 29.3995 58.4432 29.8226 58.4432 30.3343V48.5779Z" fill="#81818B"/>
<path d="M73.349 34.5852C73.885 34.5852 74.3286 34.7623 74.6799 35.1166C75.03 35.4511 75.2054 35.8742 75.2054 36.3859V43.8841C75.2054 45.9702 74.5969 47.6233 73.38 48.8435C72.1625 50.0637 70.409 50.6736 68.1184 50.6736C65.8289 50.6736 64.0749 50.0637 62.8579 48.8435C61.6614 47.6233 61.0629 45.9702 61.0629 43.8841V36.3859C61.0629 35.8742 61.2383 35.4511 61.589 35.1166C61.9397 34.7623 62.3833 34.5852 62.9199 34.5852C63.4564 34.5852 63.8995 34.7623 64.2502 35.1166C64.6014 35.4511 64.7768 35.8742 64.7768 36.3859V43.8841C64.7768 45.0846 65.0556 45.98 65.6121 46.5704C66.1691 47.1412 67.0049 47.4265 68.1184 47.4265C69.254 47.4265 70.0992 47.1412 70.6568 46.5704C71.2133 45.98 71.4921 45.0846 71.4921 43.8841V36.3859C71.4921 35.8742 71.6674 35.4511 72.0181 35.1166C72.3688 34.7623 72.8124 34.5852 73.349 34.5852Z" fill="#81818B"/>
<path d="M86.3748 34.29C88.0254 34.29 89.2424 34.6738 90.0267 35.4413C90.8105 36.1892 91.3266 37.1633 91.5739 38.3638L91.0478 38.0981L91.2956 37.6258C91.5429 37.1731 91.9246 36.691 92.4407 36.1793C92.9562 35.648 93.5752 35.2052 94.2971 34.8509C95.0399 34.4769 95.8652 34.29 96.773 34.29C98.2587 34.29 99.3827 34.5951 100.146 35.2051C100.93 35.8152 101.466 36.632 101.755 37.6553C102.044 38.659 102.189 39.7808 102.189 41.0206V48.5779C102.189 49.0896 102.014 49.5224 101.662 49.8768C101.312 50.2114 100.868 50.3788 100.332 50.3788C99.7959 50.3788 99.3518 50.2114 99.0011 49.8768C98.6504 49.5224 98.475 49.0896 98.475 48.5779V41.0206C98.475 40.3712 98.3926 39.7907 98.2277 39.2789C98.0624 38.7476 97.7631 38.3245 97.33 38.0096C96.8969 37.6947 96.2779 37.5372 95.4736 37.5372C94.6892 37.5372 94.0188 37.6947 93.4618 38.0096C92.9042 38.3245 92.4816 38.7476 92.1929 39.2789C91.9246 39.7907 91.7902 40.3712 91.7902 41.0206V48.5779C91.7902 49.0896 91.6148 49.5224 91.2647 49.8768C90.914 50.2114 90.4698 50.3788 89.9338 50.3788C89.3972 50.3788 88.9536 50.2114 88.6034 49.8768C88.2522 49.5224 88.0769 49.0896 88.0769 48.5779V41.0206C88.0769 40.3712 87.9944 39.7907 87.8291 39.2789C87.6642 38.7476 87.365 38.3245 86.9318 38.0096C86.4987 37.6947 85.8792 37.5372 85.0749 37.5372C84.2911 37.5372 83.6207 37.6947 83.0631 38.0096C82.5066 38.3245 82.0835 38.7476 81.7947 39.2789C81.5264 39.7907 81.3926 40.3712 81.3926 41.0206V48.5779C81.3926 49.0896 81.2172 49.5224 80.8665 49.8768C80.5153 50.2114 80.0722 50.3788 79.5356 50.3788C78.9991 50.3788 78.556 50.2114 78.2048 49.8768C77.8541 49.5224 77.6787 49.0896 77.6787 48.5779V36.3859C77.6787 35.8743 77.8541 35.4511 78.2048 35.1166C78.556 34.7623 78.9991 34.5852 79.5356 34.5852C80.0722 34.5852 80.5153 34.7623 80.8665 35.1166C81.2172 35.4511 81.3926 35.8743 81.3926 36.3859V37.6553L80.9279 37.5668C81.1138 37.2322 81.3721 36.8779 81.7018 36.504C82.032 36.1104 82.4342 35.7463 82.9088 35.4118C83.3834 35.0772 83.9094 34.8115 84.4869 34.6147C85.0649 34.3982 85.6944 34.29 86.3748 34.29Z" fill="#81818B"/>
<path d="M108.158 48.5779C108.158 49.0896 107.982 49.5224 107.631 49.8768C107.281 50.2115 106.837 50.3788 106.301 50.3788C105.765 50.3788 105.32 50.2115 104.97 49.8768C104.62 49.5224 104.444 49.0896 104.444 48.5779V36.3859C104.444 35.8743 104.62 35.4511 104.97 35.1166C105.32 34.7623 105.765 34.5853 106.301 34.5853C106.837 34.5853 107.281 34.7623 107.631 35.1166C107.982 35.4511 108.158 35.8743 108.158 36.3859V48.5779ZM106.27 32.6664C105.568 32.6664 105.073 32.5582 104.784 32.3417C104.496 32.1252 104.351 31.7414 104.351 31.1904V30.6295C104.351 30.0588 104.506 29.675 104.815 29.4782C105.145 29.2617 105.641 29.1534 106.301 29.1534C107.023 29.1534 107.529 29.2617 107.817 29.4782C108.106 29.6947 108.25 30.0784 108.25 30.6295V31.1904C108.25 31.7611 108.096 32.1547 107.786 32.3712C107.477 32.568 106.971 32.6664 106.27 32.6664Z" fill="#81818B"/>
<path d="M119.278 34.29C120.804 34.29 121.96 34.5951 122.744 35.2051C123.548 35.8152 124.095 36.632 124.384 37.6553C124.694 38.659 124.848 39.7808 124.848 41.0206V48.5779C124.848 49.0896 124.673 49.5224 124.322 49.8768C123.971 50.2114 123.527 50.3788 122.991 50.3788C122.455 50.3788 122.011 50.2114 121.661 49.8768C121.309 49.5224 121.134 49.0896 121.134 48.5779V41.0206C121.134 40.3712 121.042 39.7907 120.856 39.2789C120.691 38.7476 120.381 38.3245 119.927 38.0096C119.474 37.6947 118.823 37.5372 117.978 37.5372C117.152 37.5372 116.451 37.6947 115.874 38.0096C115.316 38.3245 114.883 38.7476 114.574 39.2789C114.285 39.7907 114.14 40.3712 114.14 41.0206V48.5779C114.14 49.0896 113.965 49.5224 113.614 49.8768C113.264 50.2114 112.82 50.3788 112.284 50.3788C111.747 50.3788 111.303 50.2114 110.953 49.8768C110.602 49.5224 110.427 49.0896 110.427 48.5779V36.3859C110.427 35.8743 110.602 35.4511 110.953 35.1166C111.303 34.7623 111.747 34.5852 112.284 34.5852C112.82 34.5852 113.264 34.7623 113.614 35.1166C113.965 35.4511 114.14 35.8743 114.14 36.3859V37.6553L113.676 37.5668C113.862 37.2322 114.13 36.8779 114.481 36.504C114.831 36.1104 115.245 35.7463 115.719 35.4118C116.193 35.0772 116.73 34.8115 117.328 34.6147C117.926 34.3982 118.576 34.29 119.278 34.29Z" fill="#81818B"/>
<path d="M143.221 42.4966C143.221 44.1104 142.84 45.5373 142.076 46.7771C141.333 47.9973 140.323 48.9518 139.043 49.6405C137.785 50.3296 136.372 50.6736 134.804 50.6736C133.236 50.6736 131.812 50.3296 130.533 49.6405C129.275 48.9518 128.264 47.9973 127.5 46.7771C126.758 45.5373 126.386 44.1104 126.386 42.4966C126.386 40.8829 126.758 39.4659 127.5 38.2457C128.264 37.0059 129.275 36.0415 130.533 35.3527C131.812 34.6443 133.236 34.29 134.804 34.29C136.372 34.29 137.785 34.6443 139.043 35.3527C140.323 36.0415 141.333 37.0059 142.076 38.2457C142.84 39.4659 143.221 40.8829 143.221 42.4966ZM139.508 42.4966C139.508 41.493 139.291 40.6271 138.857 39.8989C138.445 39.151 137.878 38.5705 137.155 38.1572C136.454 37.7439 135.67 37.5372 134.804 37.5372C133.937 37.5372 133.143 37.7439 132.421 38.1572C131.719 38.5705 131.151 39.151 130.719 39.8989C130.306 40.6271 130.099 41.493 130.099 42.4966C130.099 43.4807 130.306 44.3466 130.719 45.0945C131.151 45.8226 131.719 46.3933 132.421 46.8066C133.143 47.2199 133.937 47.4265 134.804 47.4265C135.67 47.4265 136.454 47.2199 137.155 46.8066C137.878 46.3933 138.445 45.8226 138.857 45.0945C139.291 44.3466 139.508 43.4807 139.508 42.4966Z" fill="#81818B"/>
<path d="M157.062 34.5852C157.599 34.5852 158.043 34.7623 158.393 35.1166C158.744 35.4511 158.919 35.8742 158.919 36.3859V43.8841C158.919 45.9702 158.311 47.6233 157.093 48.8435C155.876 50.0637 154.123 50.6736 151.832 50.6736C149.542 50.6736 147.789 50.0637 146.571 48.8435C145.375 47.6233 144.776 45.9702 144.776 43.8841V36.3859C144.776 35.8742 144.952 35.4511 145.303 35.1166C145.654 34.7623 146.097 34.5852 146.633 34.5852C147.17 34.5852 147.613 34.7623 147.964 35.1166C148.315 35.4511 148.49 35.8742 148.49 36.3859V43.8841C148.49 45.0846 148.768 45.98 149.326 46.5704C149.883 47.1412 150.718 47.4265 151.832 47.4265C152.967 47.4265 153.813 47.1412 154.37 46.5704C154.927 45.98 155.206 45.0846 155.206 43.8841V36.3859C155.206 35.8742 155.381 35.4511 155.731 35.1166C156.082 34.7623 156.526 34.5852 157.062 34.5852Z" fill="#81818B"/>
<path d="M160.433 47.9284C160.227 47.6529 160.134 47.2986 160.155 46.8657C160.175 46.4327 160.443 46.0588 160.959 45.7439C161.289 45.5471 161.64 45.4684 162.012 45.5078C162.382 45.5275 162.743 45.7045 163.095 46.0391C163.693 46.6098 164.322 47.0526 164.983 47.3675C165.642 47.6824 166.468 47.8398 167.458 47.8398C167.768 47.8201 168.107 47.7808 168.479 47.7217C168.851 47.643 169.17 47.4856 169.438 47.2495C169.727 46.9936 169.872 46.6098 169.872 46.0981C169.872 45.6652 169.717 45.3208 169.407 45.0649C169.098 44.8091 168.685 44.5926 168.169 44.4155C167.675 44.2384 167.117 44.0711 166.499 43.9137C165.859 43.7365 165.198 43.5398 164.518 43.3232C163.857 43.1068 163.249 42.8313 162.692 42.4966C162.135 42.1424 161.681 41.6799 161.33 41.1092C160.98 40.5385 160.805 39.8201 160.805 38.9542C160.805 37.9702 161.093 37.1338 161.671 36.445C162.249 35.7562 162.991 35.2249 163.899 34.8509C164.828 34.4769 165.797 34.29 166.808 34.29C167.447 34.29 168.118 34.3687 168.82 34.5262C169.521 34.6639 170.192 34.9001 170.831 35.2347C171.47 35.5495 172.007 35.9727 172.44 36.504C172.667 36.7992 172.801 37.1534 172.843 37.5668C172.884 37.9801 172.688 38.354 172.254 38.6885C171.946 38.9247 171.584 39.0329 171.171 39.0133C170.759 38.9739 170.418 38.8362 170.15 38.6C169.799 38.167 169.325 37.8226 168.727 37.5668C168.149 37.3109 167.478 37.183 166.715 37.183C166.406 37.183 166.066 37.2224 165.694 37.3011C165.343 37.3601 165.034 37.5078 164.766 37.7439C164.497 37.9604 164.363 38.3146 164.363 38.8066C164.363 39.2593 164.518 39.6234 164.828 39.8989C165.137 40.1547 165.55 40.3712 166.066 40.5484C166.602 40.7058 167.169 40.8632 167.768 41.0206C168.386 41.1781 169.016 41.365 169.655 41.5815C170.295 41.7981 170.882 42.0833 171.419 42.4376C171.956 42.7919 172.389 43.2544 172.719 43.8251C173.049 44.3761 173.214 45.0846 173.214 45.9506C173.214 46.9542 172.905 47.8104 172.285 48.5188C171.667 49.2273 170.893 49.7685 169.965 50.1425C169.036 50.4969 168.087 50.6736 167.117 50.6736C165.9 50.6736 164.683 50.4772 163.466 50.0835C162.249 49.67 161.237 48.9518 160.433 47.9284Z" fill="#81818B"/>
<path d="M0.8125 0.5H116V64.5H0.8125V0.5Z" fill="url(#paint0_linear_26_61)"/>
<defs>
<linearGradient id="paint0_linear_26_61" x1="3" y1="35" x2="118.187" y2="35" gradientUnits="userSpaceOnUse">
<stop offset="0.08" stop-color="#0D0D11"/>
<stop offset="1" stop-opacity="0"/>
</linearGradient>
</defs>
</svg>
