<svg width="154" height="65" viewBox="0 0 154 65" fill="none" xmlns="http://www.w3.org/2000/svg">
<path fill-rule="evenodd" clip-rule="evenodd" d="M5.63293 33.3796C8.21911 30.3843 12.3604 28.4437 17.0281 28.4437C21.7232 28.4437 25.8856 30.4072 28.4687 33.4325C28.3587 33.5299 28.2587 33.6308 28.168 33.7315C27.6948 34.2591 27.3388 34.9386 27.0536 35.6288C26.4793 37.0167 26.0412 38.8297 25.6356 40.5273L25.5995 40.6799C25.1949 42.3745 24.8187 43.9505 24.3639 45.1204C24.1595 45.6459 23.9658 46.0175 23.7939 46.2555C23.6146 46.0156 23.4112 45.6395 23.1959 45.1064C22.7094 43.9029 22.3003 42.266 21.8666 40.5181L21.8525 40.4608V40.4608C21.4357 38.7819 20.9936 37.0006 20.4424 35.637C20.1654 34.9521 19.8257 34.2793 19.3812 33.7566C18.9451 33.2437 18.219 32.6647 17.1571 32.6647C16.1019 32.6647 15.3726 33.2374 14.9301 33.7446C14.4771 34.2639 14.1239 34.9339 13.833 35.6192C13.247 36.9992 12.768 38.8043 12.3222 40.5043L12.2762 40.6799C11.8347 42.364 11.422 43.9384 10.9536 45.1105C10.7748 45.5582 10.606 45.8987 10.4533 46.142C10.304 45.8999 10.1394 45.5616 9.96547 45.1177C9.51608 43.9705 9.12239 42.4402 8.69956 40.7966L8.62554 40.5089C8.18745 38.8078 7.71215 36.9994 7.11789 35.6151C6.82264 34.9273 6.4615 34.2539 5.99418 33.7322C5.88834 33.6141 5.7681 33.4942 5.63293 33.3796ZM4.06771 35.6795C4.19088 35.8889 4.32119 36.1485 4.45591 36.4624C4.9703 37.6606 5.40606 39.2956 5.8548 41.038L5.94215 41.3775C6.35071 42.9673 6.77572 44.6211 7.27634 45.8987C7.5426 46.5783 7.86416 47.2438 8.27767 47.7611C8.66874 48.2504 9.37032 48.8823 10.4491 48.8823C11.5247 48.8823 12.228 48.2534 12.6217 47.7664C13.0388 47.2503 13.3656 46.5855 13.6372 45.9055C14.1579 44.6026 14.6013 42.91 15.0256 41.2902V41.2902L15.0906 41.0426C15.5477 39.2991 15.9878 37.6609 16.4985 36.4583C16.735 35.9011 16.9565 35.513 17.1493 35.2722C17.332 35.5109 17.5407 35.8929 17.7621 36.4405C18.2487 37.644 18.6574 39.2809 19.0912 41.0288L19.1054 41.086C19.5221 42.7649 19.9642 44.5463 20.5154 45.9097C20.7924 46.5949 21.1322 47.2677 21.5766 47.7903C22.0129 48.3033 22.7388 48.8823 23.8005 48.8823C24.8679 48.8823 25.5912 48.298 26.0223 47.7804C26.46 47.2552 26.7891 46.5802 27.055 45.8961C27.566 44.5821 27.9723 42.8771 28.3597 41.2551V41.255L28.4152 41.0196C28.8324 39.2738 29.2327 37.6433 29.7272 36.4487C29.8342 36.1888 29.9398 35.9672 30.0403 35.7811C30.7979 37.2762 31.2181 38.927 31.2181 40.6623C31.2181 47.4103 24.8653 52.881 17.0281 52.881C9.19116 52.881 2.83802 47.4103 2.83802 40.6623C2.83802 38.8876 3.27745 37.2012 4.06771 35.6795ZM17.0281 26C7.62376 26 0 32.5645 0 40.6623C0 48.76 7.62376 55.3245 17.0281 55.3245C26.4327 55.3245 34.0561 48.76 34.0561 40.6623C34.0561 32.5645 26.4327 26 17.0281 26ZM17.3525 35.0676C17.3525 35.0679 17.3492 35.0702 17.3426 35.0735C17.3492 35.069 17.3525 35.0673 17.3525 35.0676ZM16.9603 35.0693C16.9537 35.0658 16.9504 35.0634 16.9504 35.0631C16.9504 35.0628 16.9537 35.0645 16.9603 35.0693ZM23.5847 46.4875C23.5847 46.4875 23.5878 46.4848 23.594 46.4814C23.5878 46.486 23.5847 46.4878 23.5847 46.4875ZM23.9974 46.4777C24.004 46.4811 24.0075 46.4833 24.0075 46.4837C24.0075 46.4841 24.004 46.4822 23.9974 46.4777ZM10.1583 46.5094C10.1582 46.509 10.1623 46.5056 10.1705 46.5007C10.1624 46.5072 10.1583 46.5098 10.1583 46.5094ZM10.733 46.503C10.7411 46.5079 10.7452 46.5113 10.7452 46.5117C10.7451 46.5121 10.741 46.5098 10.733 46.503Z" fill="#81818B"/>
<path d="M43.4585 49.3427L39.3293 37.1803H42.9462L45.3953 45.9342L48.2427 37.1803H52.2867L55.1346 45.9342L57.612 37.1803H61.2289L57.0709 49.3427H53.2836L50.2647 40.2454L47.2464 49.3427H43.4585Z" fill="#81818B"/>
<path d="M66.5356 49.6371C65.3208 49.6371 64.3239 49.4732 63.5455 49.1463C62.7676 48.8031 62.1884 48.3536 61.8084 47.7978C61.4289 47.2419 61.2391 46.629 61.2391 45.9588C61.2391 44.8309 61.7515 43.9154 62.7766 43.2125C63.8017 42.5095 65.3401 42.1581 67.3903 42.1581H70.9785V41.8638C70.9785 41.0301 70.703 40.4171 70.1525 40.0248C69.6021 39.6324 68.9183 39.4363 68.1023 39.4363C67.3616 39.4363 66.716 39.5915 66.1655 39.9022C65.6151 40.1964 65.2732 40.6378 65.1404 41.2263H61.5805C61.6756 40.3436 62.0175 39.5752 62.6056 38.9213C63.2136 38.2675 63.9919 37.7688 64.9408 37.4256C65.8906 37.0659 66.9533 36.8861 68.1306 36.8861C70.1431 36.8861 71.7281 37.3193 72.8865 38.1857C74.0444 39.0521 74.6236 40.2782 74.6236 41.8638V49.3427H71.519L71.1777 47.3812C70.76 48.035 70.1714 48.5742 69.4123 48.9995C68.6716 49.4244 67.7129 49.6371 66.5356 49.6371ZM67.3616 47.1848C68.406 47.1848 69.2126 46.8904 69.7819 46.3021C70.3705 45.7137 70.7411 44.986 70.8933 44.1197H67.7887C66.8205 44.1197 66.1279 44.275 65.7097 44.5856C65.2925 44.8797 65.0834 45.2479 65.0834 45.6891C65.0834 46.1632 65.2925 46.531 65.7097 46.7924C66.1279 47.0539 66.6779 47.1848 67.3616 47.1848Z" fill="#81818B"/>
<path d="M80.3616 49.3427L75.1791 37.1803H78.9946L82.5828 46.3758L86.1709 37.1803H89.987L84.7757 49.3427H80.3616Z" fill="#81818B"/>
<path d="M97.3145 49.6371C95.891 49.6371 94.6286 49.3753 93.5271 48.8523C92.4262 48.329 91.5626 47.5935 90.9359 46.6452C90.3091 45.6974 89.9965 44.602 89.9965 43.3596C89.9965 42.1009 90.3002 40.9811 90.9071 40.0002C91.5339 39.0194 92.3881 38.2593 93.4707 37.7198C94.5711 37.164 95.8623 36.8861 97.3432 36.8861C98.729 36.8861 99.9538 37.1477 101.017 37.6708C102.08 38.1939 102.906 38.9131 103.494 39.8286C104.102 40.7277 104.406 41.733 104.406 42.8446C104.406 43.0245 104.396 43.2125 104.377 43.4086C104.377 43.6048 104.367 43.8091 104.349 44.0216H93.6129C93.6887 44.9697 94.0687 45.7137 94.7519 46.2532C95.454 46.7924 96.2993 47.0622 97.2867 47.0622C98.0265 47.0622 98.6438 46.9233 99.1373 46.6452C99.6496 46.3512 100.03 45.9751 100.276 45.5173H103.978C103.713 46.2858 103.266 46.9888 102.64 47.6264C102.032 48.2473 101.273 48.7377 100.362 49.0975C99.4697 49.457 98.4535 49.6371 97.3145 49.6371ZM97.3432 39.4363C96.4514 39.4363 95.6631 39.657 94.9793 40.0983C94.2961 40.5233 93.8596 41.1772 93.6693 42.06H100.703C100.646 41.259 100.305 40.6214 99.6783 40.1473C99.0516 39.6733 98.2737 39.4363 97.3432 39.4363Z" fill="#81818B"/>
<path d="M106.332 49.3426V31.6875H109.978V49.3426H106.332Z" fill="#81818B"/>
<path d="M119.425 49.6371C118.002 49.6371 116.74 49.3753 115.638 48.8523C114.537 48.329 113.674 47.5935 113.047 46.6452C112.42 45.6974 112.107 44.602 112.107 43.3596C112.107 42.1009 112.411 40.9811 113.018 40.0002C113.645 39.0194 114.499 38.2593 115.582 37.7198C116.683 37.164 117.973 36.8861 119.454 36.8861C120.84 36.8861 122.065 37.1477 123.128 37.6708C124.191 38.1939 125.017 38.9131 125.605 39.8286C126.213 40.7277 126.517 41.733 126.517 42.8446C126.517 43.0245 126.507 43.2125 126.488 43.4086C126.488 43.6048 126.478 43.8091 126.46 44.0216H115.724C115.8 44.9697 116.18 45.7137 116.863 46.2532C117.565 46.7924 118.41 47.0622 119.398 47.0622C120.137 47.0622 120.755 46.9233 121.248 46.6452C121.761 46.3512 122.141 45.9751 122.387 45.5173H126.09C125.824 46.2858 125.377 46.9888 124.751 47.6264C124.143 48.2473 123.384 48.7377 122.473 49.0975C121.581 49.457 120.565 49.6371 119.425 49.6371ZM119.454 39.4363C118.562 39.4363 117.774 39.657 117.09 40.0983C116.407 40.5233 115.971 41.1772 115.78 42.06H122.814C122.757 41.259 122.416 40.6214 121.789 40.1473C121.163 39.6733 120.385 39.4363 119.454 39.4363Z" fill="#81818B"/>
<path d="M134.281 49.6371C133.028 49.6371 131.927 49.4653 130.978 49.1221C130.028 48.7623 129.269 48.2719 128.699 47.6506C128.13 47.0297 127.788 46.3104 127.674 45.4931H131.348C131.462 45.9668 131.766 46.3758 132.259 46.719C132.772 47.0459 133.427 47.2094 134.224 47.2094C135.022 47.2094 135.601 47.0705 135.961 46.7924C136.341 46.5147 136.531 46.1957 136.531 45.8362C136.531 45.313 136.265 44.9614 135.734 44.7817C135.202 44.5856 134.461 44.3977 133.512 44.2178C132.905 44.1034 132.288 43.9644 131.661 43.801C131.035 43.6375 130.456 43.4331 129.924 43.188C129.411 42.9264 128.994 42.5994 128.671 42.2071C128.348 41.7984 128.187 41.2998 128.187 40.7113C128.187 39.6324 128.681 38.7252 129.668 37.9896C130.674 37.2539 132.079 36.8861 133.882 36.8861C135.553 36.8861 136.882 37.2212 137.869 37.8915C138.875 38.5617 139.473 39.4853 139.664 40.6623H136.218C136.009 39.7632 135.221 39.3137 133.854 39.3137C133.171 39.3137 132.639 39.4281 132.259 39.657C131.899 39.8858 131.718 40.1719 131.718 40.5152C131.718 40.8748 131.993 41.1609 132.544 41.3734C133.095 41.5859 133.826 41.7821 134.737 41.9619C135.724 42.1581 136.625 42.3788 137.442 42.624C138.277 42.8528 138.942 43.2043 139.436 43.6784C139.929 44.1361 140.176 44.798 140.176 45.6645C140.195 46.4167 139.967 47.0947 139.493 47.6998C139.018 48.3044 138.335 48.7785 137.442 49.1221C136.55 49.4653 135.496 49.6371 134.281 49.6371Z" fill="#81818B"/>
<path d="M148.104 49.6371C146.851 49.6371 145.749 49.4653 144.801 49.1221C143.851 48.7623 143.092 48.2719 142.522 47.6506C141.953 47.0297 141.611 46.3104 141.497 45.4931H145.171C145.285 45.9668 145.588 46.3758 146.082 46.719C146.595 47.0459 147.249 47.2094 148.047 47.2094C148.844 47.2094 149.423 47.0705 149.784 46.7924C150.163 46.5147 150.354 46.1957 150.354 45.8362C150.354 45.313 150.088 44.9614 149.556 44.7817C149.025 44.5856 148.284 44.3977 147.335 44.2178C146.727 44.1034 146.111 43.9644 145.484 43.801C144.858 43.6375 144.278 43.4331 143.747 43.188C143.234 42.9264 142.816 42.5994 142.494 42.2071C142.171 41.7984 142.01 41.2998 142.01 40.7113C142.01 39.6324 142.504 38.7252 143.491 37.9896C144.497 37.2539 145.901 36.8861 147.705 36.8861C149.376 36.8861 150.705 37.2212 151.692 37.8915C152.698 38.5617 153.296 39.4853 153.486 40.6623H150.04C149.832 39.7632 149.044 39.3137 147.677 39.3137C146.993 39.3137 146.461 39.4281 146.082 39.657C145.721 39.8858 145.541 40.1719 145.541 40.5152C145.541 40.8748 145.816 41.1609 146.367 41.3734C146.917 41.5859 147.648 41.7821 148.559 41.9619C149.547 42.1581 150.448 42.3788 151.265 42.624C152.1 42.8528 152.765 43.2043 153.258 43.6784C153.752 44.1361 153.999 44.798 153.999 45.6645C154.018 46.4167 153.79 47.0947 153.315 47.6998C152.84 48.3044 152.157 48.7785 151.265 49.1221C150.373 49.4653 149.319 49.6371 148.104 49.6371Z" fill="#81818B"/>
<path d="M43.3125 0H154V65H43.3125C43.3125 65 43.3125 25.3841 43.3125 0Z" fill="url(#paint0_linear_26_65)"/>
<defs>
<linearGradient id="paint0_linear_26_65" x1="141.048" y1="32.9427" x2="30.3602" y2="32.9427" gradientUnits="userSpaceOnUse">
<stop offset="0.08" stop-color="#0D0D11"/>
<stop offset="1" stop-opacity="0"/>
</linearGradient>
</defs>
</svg>
